<svg xmlns="http://www.w3.org/2000/svg" xmlns:xlink="http://www.w3.org/1999/xlink" width="500" zoomAndPan="magnify" viewBox="0 0 375 374.999991" height="500" preserveAspectRatio="xMidYMid meet" version="1.0"><defs><clipPath id="6a8e0a0d44"><path d="M 78.023438 61.160156 L 300.835938 61.160156 L 300.835938 337.933594 L 78.023438 337.933594 Z M 78.023438 61.160156 " clip-rule="nonzero"/></clipPath><clipPath id="c4d36b9bf9"><path d="M 84.023438 61.160156 L 294.835938 61.160156 C 296.429688 61.160156 297.953125 61.789062 299.082031 62.917969 C 300.207031 64.042969 300.835938 65.566406 300.835938 67.160156 L 300.835938 331.5 C 300.835938 333.089844 300.207031 334.617188 299.082031 335.742188 C 297.953125 336.867188 296.429688 337.5 294.835938 337.5 L 84.023438 337.5 C 82.433594 337.5 80.90625 336.867188 79.78125 335.742188 C 78.65625 334.617188 78.023438 333.089844 78.023438 331.5 L 78.023438 67.160156 C 78.023438 65.566406 78.65625 64.042969 79.78125 62.917969 C 80.90625 61.789062 82.433594 61.160156 84.023438 61.160156 Z M 84.023438 61.160156 " clip-rule="nonzero"/></clipPath><clipPath id="eb24b8be9d"><path d="M 90.035156 72.070312 L 288.828125 72.070312 L 288.828125 323.671875 L 90.035156 323.671875 Z M 90.035156 72.070312 " clip-rule="nonzero"/></clipPath><clipPath id="40452e209a"><path d="M 93.785156 72.070312 L 285.078125 72.070312 C 286.074219 72.070312 287.027344 72.464844 287.730469 73.167969 C 288.433594 73.871094 288.828125 74.824219 288.828125 75.820312 L 288.828125 319.566406 C 288.828125 320.5625 288.433594 321.515625 287.730469 322.21875 C 287.027344 322.921875 286.074219 323.316406 285.078125 323.316406 L 93.785156 323.316406 C 92.789062 323.316406 91.835938 322.921875 91.132812 322.21875 C 90.429688 321.515625 90.035156 320.5625 90.035156 319.566406 L 90.035156 75.820312 C 90.035156 74.824219 90.429688 73.871094 91.132812 73.167969 C 91.835938 72.464844 92.789062 72.070312 93.785156 72.070312 Z M 93.785156 72.070312 " clip-rule="nonzero"/></clipPath><clipPath id="11507aacd9"><path d="M 98.011719 61.160156 L 280.847656 61.160156 L 280.847656 314.699219 L 98.011719 314.699219 Z M 98.011719 61.160156 " clip-rule="nonzero"/></clipPath><clipPath id="43773aeb72"><path d="M 105.511719 61.160156 L 273.347656 61.160156 C 277.492188 61.160156 280.847656 64.515625 280.847656 68.660156 L 280.847656 307.035156 C 280.847656 311.175781 277.492188 314.535156 273.347656 314.535156 L 105.511719 314.535156 C 101.371094 314.535156 98.011719 311.175781 98.011719 307.035156 L 98.011719 68.660156 C 98.011719 64.515625 101.371094 61.160156 105.511719 61.160156 Z M 105.511719 61.160156 " clip-rule="nonzero"/></clipPath><clipPath id="97f4791e12"><path d="M 102.3125 61.160156 L 276.550781 61.160156 L 276.550781 255 L 102.3125 255 Z M 102.3125 61.160156 " clip-rule="nonzero"/></clipPath><clipPath id="2365be3b33"><path d="M 109.8125 61.160156 L 269.050781 61.160156 C 273.191406 61.160156 276.550781 64.515625 276.550781 68.660156 L 276.550781 246.964844 C 276.550781 251.109375 273.191406 254.464844 269.050781 254.464844 L 109.8125 254.464844 C 105.671875 254.464844 102.3125 251.109375 102.3125 246.964844 L 102.3125 68.660156 C 102.3125 64.515625 105.671875 61.160156 109.8125 61.160156 Z M 109.8125 61.160156 " clip-rule="nonzero"/></clipPath><clipPath id="b9ffbd5af6"><path d="M 102.613281 266.847656 L 276.59375 266.847656 L 276.59375 310.347656 L 102.613281 310.347656 Z M 102.613281 266.847656 " clip-rule="nonzero"/></clipPath><clipPath id="497c0f5cae"><path d="M 110.113281 266.847656 L 269.324219 266.847656 C 273.464844 266.847656 276.820312 270.203125 276.820312 274.34375 L 276.820312 303.128906 C 276.820312 307.269531 273.464844 310.628906 269.324219 310.628906 L 110.113281 310.628906 C 105.972656 310.628906 102.613281 307.269531 102.613281 303.128906 L 102.613281 274.34375 C 102.613281 270.203125 105.972656 266.847656 110.113281 266.847656 Z M 110.113281 266.847656 " clip-rule="nonzero"/></clipPath></defs><g clip-path="url(#6a8e0a0d44)"><g clip-path="url(#c4d36b9bf9)"><path fill="#191c1f" d="M 78.023438 61.160156 L 300.835938 61.160156 L 300.835938 337.933594 L 78.023438 337.933594 Z M 78.023438 61.160156 " fill-opacity="1" fill-rule="nonzero"/></g></g><g clip-path="url(#eb24b8be9d)"><g clip-path="url(#40452e209a)"><path fill="#c2c2c2" d="M 90.035156 72.070312 L 288.828125 72.070312 L 288.828125 323.671875 L 90.035156 323.671875 Z M 90.035156 72.070312 " fill-opacity="1" fill-rule="nonzero"/></g></g><g clip-path="url(#11507aacd9)"><g clip-path="url(#43773aeb72)"><path fill="#1b1e21" d="M 98.011719 61.160156 L 280.847656 61.160156 L 280.847656 314.699219 L 98.011719 314.699219 Z M 98.011719 61.160156 " fill-opacity="1" fill-rule="nonzero"/></g></g><g clip-path="url(#97f4791e12)"><g clip-path="url(#2365be3b33)"><path fill="#c2c2c2" d="M 102.3125 61.160156 L 276.550781 61.160156 L 276.550781 254.449219 L 102.3125 254.449219 Z M 102.3125 61.160156 " fill-opacity="1" fill-rule="nonzero"/></g></g><g clip-path="url(#b9ffbd5af6)"><g clip-path="url(#497c0f5cae)"><path stroke-linecap="butt" transform="matrix(0.75, 0, 0, 0.75, 102.614412, 266.846819)" fill="none" stroke-linejoin="miter" d="M 9.998492 0.00111596 L 222.279742 0.00111596 C 227.800576 0.00111596 232.274534 4.475074 232.274534 9.995908 L 232.274534 48.376116 C 232.274534 53.896949 227.800576 58.376116 222.279742 58.376116 L 9.998492 58.376116 C 4.477659 58.376116 -0.00150788 53.896949 -0.00150788 48.376116 L -0.00150788 9.995908 C -0.00150788 4.475074 4.477659 0.00111596 9.998492 0.00111596 Z M 9.998492 0.00111596 " stroke="#c2c2c2" stroke-width="2" stroke-opacity="1" stroke-miterlimit="4"/></g></g></svg>