<svg xmlns="http://www.w3.org/2000/svg" xmlns:xlink="http://www.w3.org/1999/xlink" width="500" zoomAndPan="magnify" viewBox="0 0 375 374.999991" height="500" preserveAspectRatio="xMidYMid meet" version="1.0"><defs><clipPath id="c1d39b0e3b"><path d="M 88.117188 61.160156 L 290.746094 61.160156 L 290.746094 323.941406 L 88.117188 323.941406 Z M 88.117188 61.160156 " clip-rule="nonzero"/></clipPath><clipPath id="ad5b8b0a94"><path d="M 94.117188 61.160156 L 284.746094 61.160156 C 286.335938 61.160156 287.863281 61.789062 288.988281 62.917969 C 290.113281 64.042969 290.746094 65.566406 290.746094 67.160156 L 290.746094 317.335938 C 290.746094 318.929688 290.113281 320.453125 288.988281 321.578125 C 287.863281 322.703125 286.335938 323.335938 284.746094 323.335938 L 94.117188 323.335938 C 92.527344 323.335938 91 322.703125 89.875 321.578125 C 88.75 320.453125 88.117188 318.929688 88.117188 317.335938 L 88.117188 67.160156 C 88.117188 65.566406 88.75 64.042969 89.875 62.917969 C 91 61.789062 92.527344 61.160156 94.117188 61.160156 Z M 94.117188 61.160156 " clip-rule="nonzero"/></clipPath><clipPath id="4fa721a174"><path d="M 100.945312 68.746094 L 277.917969 68.746094 L 277.917969 312.777344 L 100.945312 312.777344 Z M 100.945312 68.746094 " clip-rule="nonzero"/></clipPath><clipPath id="0bb0ef5c7a"><path d="M 104.695312 68.746094 L 274.167969 68.746094 C 275.164062 68.746094 276.117188 69.144531 276.820312 69.847656 C 277.523438 70.550781 277.917969 71.503906 277.917969 72.496094 L 277.917969 308.777344 C 277.917969 309.773438 277.523438 310.726562 276.820312 311.429688 C 276.117188 312.132812 275.164062 312.527344 274.167969 312.527344 L 104.695312 312.527344 C 103.699219 312.527344 102.746094 312.132812 102.042969 311.429688 C 101.339844 310.726562 100.945312 309.773438 100.945312 308.777344 L 100.945312 72.496094 C 100.945312 71.503906 101.339844 70.550781 102.042969 69.847656 C 102.746094 69.144531 103.699219 68.746094 104.695312 68.746094 Z M 104.695312 68.746094 " clip-rule="nonzero"/></clipPath><clipPath id="b75a256ae6"><path d="M 108.636719 61.160156 L 270.226562 61.160156 L 270.226562 304.804688 L 108.636719 304.804688 Z M 108.636719 61.160156 " clip-rule="nonzero"/></clipPath><clipPath id="4394feaf47"><path d="M 116.136719 61.160156 L 262.726562 61.160156 C 266.867188 61.160156 270.226562 64.515625 270.226562 68.660156 L 270.226562 297.273438 C 270.226562 301.414062 266.867188 304.773438 262.726562 304.773438 L 116.136719 304.773438 C 111.996094 304.773438 108.636719 301.414062 108.636719 297.273438 L 108.636719 68.660156 C 108.636719 64.515625 111.996094 61.160156 116.136719 61.160156 Z M 116.136719 61.160156 " clip-rule="nonzero"/></clipPath><clipPath id="9345cdf683"><path d="M 112.929688 61.160156 L 265.929688 61.160156 L 265.929688 247 L 112.929688 247 Z M 112.929688 61.160156 " clip-rule="nonzero"/></clipPath><clipPath id="44645296c2"><path d="M 120.429688 61.160156 L 258.429688 61.160156 C 262.574219 61.160156 265.929688 64.515625 265.929688 68.660156 L 265.929688 239.5 C 265.929688 243.644531 262.574219 247 258.429688 247 L 120.429688 247 C 116.289062 247 112.929688 243.644531 112.929688 239.5 L 112.929688 68.660156 C 112.929688 64.515625 116.289062 61.160156 120.429688 61.160156 Z M 120.429688 61.160156 " clip-rule="nonzero"/></clipPath><clipPath id="6e248eb465"><path d="M 112.929688 255.851562 L 265.929688 255.851562 L 265.929688 299.796875 L 112.929688 299.796875 Z M 112.929688 255.851562 " clip-rule="nonzero"/></clipPath><clipPath id="589b6e7d45"><path d="M 120.429688 255.851562 L 258.429688 255.851562 C 262.574219 255.851562 265.929688 259.210938 265.929688 263.351562 L 265.929688 292.226562 C 265.929688 296.371094 262.574219 299.726562 258.429688 299.726562 L 120.429688 299.726562 C 116.289062 299.726562 112.929688 296.371094 112.929688 292.226562 L 112.929688 263.351562 C 112.929688 259.210938 116.289062 255.851562 120.429688 255.851562 Z M 120.429688 255.851562 " clip-rule="nonzero"/></clipPath></defs><g clip-path="url(#c1d39b0e3b)"><g clip-path="url(#ad5b8b0a94)"><path fill="#191c1f" d="M 88.117188 61.160156 L 290.746094 61.160156 L 290.746094 323.152344 L 88.117188 323.152344 Z M 88.117188 61.160156 " fill-opacity="1" fill-rule="nonzero"/></g></g><g clip-path="url(#4fa721a174)"><g clip-path="url(#0bb0ef5c7a)"><path fill="#c2c2c2" d="M 100.945312 68.746094 L 277.917969 68.746094 L 277.917969 312.777344 L 100.945312 312.777344 Z M 100.945312 68.746094 " fill-opacity="1" fill-rule="nonzero"/></g></g><g clip-path="url(#b75a256ae6)"><g clip-path="url(#4394feaf47)"><path fill="#1b1e21" d="M 108.636719 61.160156 L 270.226562 61.160156 L 270.226562 304.804688 L 108.636719 304.804688 Z M 108.636719 61.160156 " fill-opacity="1" fill-rule="nonzero"/></g></g><g clip-path="url(#9345cdf683)"><g clip-path="url(#44645296c2)"><path fill="#c2c2c2" d="M 112.929688 61.160156 L 265.929688 61.160156 L 265.929688 247.03125 L 112.929688 247.03125 Z M 112.929688 61.160156 " fill-opacity="1" fill-rule="nonzero"/></g></g><g clip-path="url(#6e248eb465)"><g clip-path="url(#589b6e7d45)"><path stroke-linecap="butt" transform="matrix(0.75, 0, 0, 0.75, 112.931327, 255.852434)" fill="none" stroke-linejoin="miter" d="M 9.997814 -0.00116253 L 193.997826 -0.00116253 C 199.523868 -0.00116253 203.997827 4.478004 203.997827 9.998838 L 203.997827 48.498841 C 203.997827 54.024883 199.523868 58.498841 193.997826 58.498841 L 9.997814 58.498841 C 4.47698 58.498841 -0.00218665 54.024883 -0.00218665 48.498841 L -0.00218665 9.998838 C -0.00218665 4.478004 4.47698 -0.00116253 9.997814 -0.00116253 Z M 9.997814 -0.00116253 " stroke="#c2c2c2" stroke-width="2" stroke-opacity="1" stroke-miterlimit="4"/></g></g></svg>