<svg xmlns="http://www.w3.org/2000/svg" xmlns:xlink="http://www.w3.org/1999/xlink" width="445" zoomAndPan="magnify" viewBox="0 0 375 374.999991" height="445" preserveAspectRatio="xMidYMid meet" version="1.0"><defs><clipPath id="82411e7437"><path d="M 37.5 37.5 L 337.5 37.5 L 337.5 337.5 L 37.5 337.5 Z M 37.5 37.5 " clip-rule="nonzero"/></clipPath><clipPath id="af244d58e8"><path d="M 187.5 37.5 C 104.65625 37.5 37.5 104.65625 37.5 187.5 C 37.5 270.34375 104.65625 337.5 187.5 337.5 C 270.34375 337.5 337.5 270.34375 337.5 187.5 C 337.5 104.65625 270.34375 37.5 187.5 37.5 Z M 187.5 37.5 " clip-rule="nonzero"/></clipPath><clipPath id="7c5bf119ed"><path d="M 44.65625 45.015625 L 330 45.015625 L 330 187.515625 L 44.65625 187.515625 Z M 44.65625 45.015625 " clip-rule="nonzero"/></clipPath><clipPath id="3fff4c7c98"><path d="M 44.65625 147.125 L 330.34375 147.125 L 330.34375 192.46875 L 44.65625 192.46875 Z M 44.65625 147.125 " clip-rule="nonzero"/></clipPath><clipPath id="7cecd7ddf0"><path d="M 44.65625 45.964844 L 330.40625 45.964844 L 330.40625 328.714844 L 44.65625 328.714844 Z M 44.65625 45.964844 " clip-rule="nonzero"/></clipPath><clipPath id="6724c152eb"><path d="M 187.496094 45.964844 C 108.609375 45.964844 44.65625 109.332031 44.65625 187.5 C 44.65625 265.664062 108.609375 329.03125 187.496094 329.03125 C 266.386719 329.03125 330.335938 265.664062 330.335938 187.5 C 330.335938 109.332031 266.386719 45.964844 187.496094 45.964844 Z M 187.496094 45.964844 " clip-rule="nonzero"/></clipPath><clipPath id="c6f0dfc761"><path d="M 49.769531 152.4375 L 324.960938 152.4375 L 324.960938 156.484375 L 49.769531 156.484375 Z M 49.769531 152.4375 " clip-rule="nonzero"/></clipPath><clipPath id="344ac8310c"><path d="M 42.691406 147.125 L 332.308594 147.125 L 332.308594 152.519531 L 42.691406 152.519531 Z M 42.691406 147.125 " clip-rule="nonzero"/></clipPath></defs><g clip-path="url(#82411e7437)"><g clip-path="url(#af244d58e8)"><path fill="#c2c2c2" d="M 37.5 37.5 L 337.5 37.5 L 337.5 337.5 L 37.5 337.5 Z M 37.5 37.5 " fill-opacity="1" fill-rule="nonzero"/></g></g><g clip-path="url(#7c5bf119ed)"><path fill="#1e2225" d="M 187.445312 44.988281 C 226.859375 44.988281 262.386719 60.949219 288.199219 86.761719 C 314.011719 112.574219 329.972656 148.242188 329.972656 187.515625 C 283.757812 187.515625 91.273438 187.515625 44.917969 187.515625 C 44.917969 148.242188 60.878906 112.574219 86.691406 86.761719 C 112.503906 60.949219 148.171875 44.988281 187.445312 44.988281 Z M 187.445312 44.988281 " fill-opacity="1" fill-rule="nonzero"/></g><g clip-path="url(#3fff4c7c98)"><path fill="#c2c2c2" d="M 44.65625 147.125 L 330.371094 147.125 L 330.371094 192.46875 L 44.65625 192.46875 Z M 44.65625 147.125 " fill-opacity="1" fill-rule="nonzero"/></g><g clip-path="url(#7cecd7ddf0)"><g clip-path="url(#6724c152eb)"><path stroke-linecap="butt" transform="matrix(0.75, 0, 0, 0.75, 44.657678, 45.966614)" fill="none" stroke-linejoin="miter" d="M 190.451234 -0.00236004 C 85.268936 -0.00236004 -0.00190342 84.487229 -0.00190342 188.711194 C -0.00190342 292.929951 85.268936 377.41954 190.451234 377.41954 C 295.638741 377.41954 380.904372 292.929951 380.904372 188.711194 C 380.904372 84.487229 295.638741 -0.00236004 190.451234 -0.00236004 Z M 190.451234 -0.00236004 " stroke="#1e2225" stroke-width="10" stroke-opacity="1" stroke-miterlimit="4"/></g></g><g clip-path="url(#c6f0dfc761)"><path fill="#1e2225" d="M 49.769531 152.4375 L 324.964844 152.4375 L 324.964844 156.484375 L 49.769531 156.484375 Z M 49.769531 152.4375 " fill-opacity="1" fill-rule="nonzero"/></g><g clip-path="url(#344ac8310c)"><path fill="#c2c2c2" d="M 42.691406 147.125 L 332.308594 147.125 L 332.308594 152.519531 L 42.691406 152.519531 Z M 42.691406 147.125 " fill-opacity="1" fill-rule="nonzero"/></g></svg>